<?xml version="1.0" encoding="utf-8"?>
<!-- Generator: Adobe Illustrator 18.1.1, SVG Export Plug-In . SVG Version: 6.00 Build 0)  -->
<svg version="1.1" id="Layer_2" xmlns="http://www.w3.org/2000/svg" xmlns:xlink="http://www.w3.org/1999/xlink" x="0px" y="0px"
	 viewBox="0 0 303 610.5" enable-background="new 0 0 303 610.5" xml:space="preserve">
<path fill="none" stroke="#B43DF9" stroke-miterlimit="5" d="M152.4,146.6c1-1.3,2-2.4,4,0.9c2,3.3,4.1,3.4,1.8,6.5
	c-3.8,5.7-3.3,6.8-5.9,3.7c-3.7-5.3-4.5-5.7-2.3-8.4C152.4,146.6,152.4,146.6,152.4,146.6z"/>
<path fill="none" stroke="#B43DF9" stroke-miterlimit="5" d="M155.3,118.6c-0.1,2.4-1.7,2.6-2.1,0c-0.4-2.6-1-3-1.8-3.8
	c-0.9-0.9-1-2,1.1-2c2.2,0,3.7,0,4.7,0c1,0,1.7,0,0,1.8S155.3,118.6,155.3,118.6z"/>
<g>
	<path fill="none" stroke="#B43DF9" stroke-miterlimit="5" d="M136.5,94.3c-0.3-1.8-1.1-2.7-3.1-1.7c-2,1-13.1,5-13.9,5.8
		s-0.4,1.8,1.7,2.8c2.1,1,23,8.7,24.9,9.4c1.8,0.7,3.7,0.6,1.1-2.1C144.6,105.8,136.5,94.3,136.5,94.3z"/>
	<path fill="none" stroke="#B43DF9" stroke-miterlimit="5" d="M151.3,126.3c-1.4-5.5-0.3-10.9-9.2-13.9c-9-3-23.7-10-25.9-10.8
		c-2.1-0.8-3.4,0-1.4,1.5c4.7,3.6,7.4,6.5,5.5,12.4c-1.8,5.8-9.4,20.9-10.5,23.6c-1.1,2.7,0.4,4.6,1.3,5.4
		c0.9,0.9,12.1,10.4,16.5,11.4c4.4,1,12.1,2,16.1-1.4S155.3,142.5,151.3,126.3z"/>
	<path fill="none" stroke="#B43DF9" stroke-miterlimit="5" d="M98.2,111.8c-4.4,3.5-9.7,10-11.7,22.5c-0.7,4.1-0.9,8.7-0.9,9.4
		c0,2.4,0.4,2.7,3.1,0.9s5.5-4.4,9.4-5.4c3.8-1,10.5-4.7,13.1-8.5s5.7-10,6.7-15.4c1-5.4,2.1-8-2.7-10.2
		C110.4,102.7,106.8,104.8,98.2,111.8z"/>
	<path fill="none" stroke="#B43DF9" stroke-miterlimit="5" d="M102.2,148c-0.2-4.6,0.1-4.8-1.8-5.4c-1.8-0.6-5.4,0-11.7,6.5
		c-6.3,6.5-5.5,7.4-6.8,21.3c-1.3,13.9-2,34.4-1.6,37.3c0.4,2.8,1,3.1,4-1.6c3-4.7,14.1-29,16.1-42.4
		C102.4,150.5,102.2,148,102.2,148z"/>
	<path fill="none" stroke="#B43DF9" stroke-miterlimit="5" d="M102.2,163.1c1.3-3.8,3.9-4.3,3,0.7c-0.9,5-2.3,14.6-5.4,20.5
		c-3.1,5.8-5.7,10-3,0.9C99.6,176.1,101.4,165.4,102.2,163.1z"/>
	<path fill="none" stroke="#B43DF9" stroke-miterlimit="5" d="M78.5,198.5c-0.9-8.7-1.8-9.2-5-4.3c-3.1,5-9.2,16.6-9,29.2
		c0.3,12.5-5.1,31.3-8,36.8c-2.8,5.5-2.8,9.4,0,4.4c2.8-5,17.8-22.9,20.2-43.2C79.2,201.1,78.5,198.5,78.5,198.5z"/>
	<path fill="none" stroke="#B43DF9" stroke-miterlimit="5" d="M95.7,196.8c-0.3-4-2-4.1-3.8,0s-6.8,12.4-7.7,14.4
		s-8.1,17.2-10.8,32.1c-2.7,14.9-4.8,26.9-4.7,31.3c0.1,4.4,0.3,5.8,2.4-1.4c2.1-7.3,10.4-29.6,14.5-40.8c4.1-11.2,3.7-6.1,5-14.4
		s2.8-8.2,4.1-10.7C96,204.9,95.7,196.8,95.7,196.8z"/>
	<path fill="none" stroke="#B43DF9" stroke-miterlimit="5" d="M67.4,259.2c0.4,2.8-7.8,10.2-7.7,22.3c0.1,12.1,0.9,20.2-2.4,23.9
		c-3.3,3.7-2.8,3.6,0,2c2.8-1.6,8.4-7.7,10.1-10.8c1.7-3.1,2.7-8.5,0-14.2c-2.7-5.7-1.8-11.9-0.9-15.5
		C67.4,263.4,67.4,259.2,67.4,259.2z"/>
	<path fill="none" stroke="#B43DF9" stroke-miterlimit="5" d="M59.9,269.5c0.9-1.2-0.1-1-1.3,0c-1.1,1-9.1,3.3-10.9,4.8
		c-1.8,1.6-7,7.8-7.5,8.7c-0.6,0.9-1.6,0.6,0,0.9c1.6,0.3,6.7-0.9,10.2,2.4c1.7,1.7,2.7,1.6,4.7-1.3
		C57.1,282.1,58.1,271.9,59.9,269.5z"/>
	<path fill="none" stroke="#B43DF9" stroke-miterlimit="5" d="M45.4,286.4c-0.3,3.7-0.7,5-2.7,6.1c-2,1.1-5.7-0.1-8.2,1.8
		c-2.6,2-4.8-1.3-4.6-2.4c0.3-1.1,7.3-4.6,7.3-4.6l3.1-1H45.4z"/>
	<path fill="none" stroke="#B43DF9" stroke-miterlimit="5" d="M57.8,292.5c0.5,4.3-0.6,8.5-1.8,10.9c-1.3,2.4-1.8,2.1-4.1,0
		c-2.3-2.1,0.3-5.4-2.8-7.7c-3.1-2.3-3.8-2.9-2.7-5.1c1.1-2.2,1.7-2.7,4.8-1.2c3.1,1.6,2.4,0.6,3.4-0.1S57.2,287.5,57.8,292.5z"/>
	<path fill="none" stroke="#B43DF9" stroke-miterlimit="5" d="M52,322.2L52,322.2c0.6,0.3,1.3,0,1.6-0.6l5-10.4
		c0.3-0.6,0-1.3-0.6-1.6l0,0c-0.6-0.3-1.3,0-1.6,0.6l-5,10.4C51.2,321.2,51.4,322,52,322.2z"/>
	<path fill="none" stroke="#B43DF9" stroke-miterlimit="5" d="M34.3,316.7L34.3,316.7c-0.8-0.5-1.1-1.5-0.6-2.3l10.8-18.5
		c0.5-0.8,1.5-1.1,2.3-0.6h0c0.8,0.5,1.1,1.5,0.6,2.3l-10.8,18.5C36.2,316.9,35.1,317.2,34.3,316.7z"/>
	<path fill="none" stroke="#B43DF9" stroke-miterlimit="5" d="M36.3,325.8L36.3,325.8c1.2,0.6,2.7,0.2,3.3-1l10.4-19.9
		c0.6-1.2,0.2-2.7-1-3.3l0,0c-1.2-0.6-2.7-0.2-3.3,1l-10.4,19.9C34.6,323.7,35.1,325.2,36.3,325.8z"/>
	<path fill="none" stroke="#B43DF9" stroke-miterlimit="5" d="M42.1,326.4L42.1,326.4c-1.1-0.6-1.5-1.9-0.9-3l9.1-16.9
		c0.6-1.1,1.9-1.5,3-0.9l0,0c1.1,0.6,1.5,1.9,0.9,3l-9.1,16.9C44.5,326.5,43.2,326.9,42.1,326.4z"/>
	<path fill="none" stroke="#B43DF9" stroke-miterlimit="5" d="M110.4,154.7c0.4-6.3,0.3-5.5-1-6c-1.3-0.4-2-0.7-2,9.5
		c0,10.2,1,22.5,0.7,20.5c-0.3-2,1.2,5.2,1.3-2.6C109.5,168.4,110.4,154.7,110.4,154.7z"/>
	<path fill="none" stroke="#B43DF9" stroke-miterlimit="5" d="M116.4,154c-3.4-1.4-3.7-5.1-4.1,4.3c-0.4,9.4-0.6,32.7-0.6,29.7
		s0.1,5.5,2.3-3.4c2.2-9,5.8-16.2,7.9-19.1c2.1-2.8,4.8-6.1,0-8.7C117.1,154.2,116.4,154,116.4,154z"/>
	<path fill="none" stroke="#B43DF9" stroke-miterlimit="5" d="M132.3,166.8c2-6.4-1.7-12.4-5.8-5.7c-4.1,6.7-10.1,22.5-11.4,26
		c-1.3,3.6-1.6,5.1-1.4,10.4c0,8.7,0.4,11.2,1.6,6.8c1.1-4.4,6.6-9.6,8-10.6c1.4-0.9,6.5-6.6,6.2-11.4S132.3,166.8,132.3,166.8z"/>
	<path fill="none" stroke="#B43DF9" stroke-miterlimit="5" d="M153,173.5c-0.1,3.4-0.9,3.3-7.5,3.6c-6.7,0.3-9.7,3.4-10.9,4.6
		c-1.3,1.1-3.7,2.5-1.7-5.5c3-12.2,1.9-16.1,8.3-18c6.4-1.9,7.1-2.2,8.7,0.7C151.3,161.7,153.5,161.4,153,173.5z"/>
	<path fill="none" stroke="#B43DF9" stroke-miterlimit="5" d="M153.1,182.9c-0.1-3.8-3.7-4.9-10.5-2.6c-6.8,2.3-9.3,8.6-10.5,10.2
		c-1.2,1.6-1.2,3-1.1,7.9c0.1,4.9-0.6,5.9,1.1,4.2s5.4-4.5,11.6-4.4c6.2,0.1,9.5,1.8,9.4-1.7S153.1,182.9,153.1,182.9z"/>
	<path fill="none" stroke="#B43DF9" stroke-miterlimit="5" d="M126.7,198.6c1-3.3,0.9-4.7-1.1-3.4c-1.9,1.3-5.2,4.5-6.4,6.9
		s-2.6,8.4,0.7,13.9c3.3,5.4,8.3,9.3,9.9,10.2s4.5,1,2.1-1.8s-5.9-12.5-6-16.7C126,203.4,126.7,198.6,126.7,198.6z"/>
	<path fill="none" stroke="#B43DF9" stroke-miterlimit="5" d="M148.9,201.9c3.3,0.3,3-0.2,3,5.8c0,6,0.6,17,0.5,19.1
		c0,2.1-0.7,2.7-3.5,1.1s-5.9-2.5-8.2-2.6c-2.3-0.1-5.7-0.4-7.7-5.9s-5.7-11.2-0.9-13.9C136.9,202.9,141.6,201.1,148.9,201.9z"/>
	<path fill="none" stroke="#B43DF9" stroke-miterlimit="5" d="M120.8,221.7c-3.6-4.9-5.5-8.6-5.9-2.6c-0.3,6.1-5.1,27.5,9,41.8
		s18,17.6,16.1,12.9c-1.9-4.7-7.4-17-8.2-25.5c-0.9-8.5-0.9-17-0.9-17s1.3-1-1.7-2.6C126.2,227.1,120.8,221.7,120.8,221.7z"/>
	<path fill="none" stroke="#B43DF9" stroke-miterlimit="5" d="M150.5,233.1c-2.7-2.1-11.3-6.1-14.5-6.4c-3.2-0.3-3,1-3.1,5.9
		c0,4.9,2.3,24.8,5.7,32.4c3.4,7.6,8.1,14.1,10.5,15.9s2.7,3.9,2.8-2.7s-0.1-37.6,0-40.8S151.6,233.9,150.5,233.1z"/>
	<path fill="none" stroke="#B43DF9" stroke-miterlimit="5" d="M115,262.3c0.3-5.9-0.2-4.4-1.1-8.3c-1-3.9-1.3-6.8-1.7-1.3
		c-0.4,5.5-5.2,30.8-2.5,55.7s3.5,28.2,4.2,29.9s2.1,2.5,2.1-0.9C116,334.2,115,262.3,115,262.3z"/>
	<path fill="none" stroke="#B43DF9" stroke-miterlimit="5" d="M120.5,265.5c-1.6-5.9-3.4-10.7-3.2-2.9c0.2,7.8-0.5,51.3,2.3,84.4
		c2.9,33.1,5.1,53.3,5.7,60.5c0.5,7.1,0,10.1,4.6,1.4c4.6-8.7,12.5-18.9,10.3-72.4c-3.4-26.4-19.3-69.5-19.3-69.5"/>
	<path fill="none" stroke="#B43DF9" stroke-miterlimit="5" d="M125.9,265.8c-2.6-5.6-5.4-7.9-3.1,0c2.3,7.9,24.3,79.5,25.4,81.1
		c1.1,1.6,2,3.8,2.2-2.5c0.2-6.3,1.3-48.7,1.5-51.1S125.9,265.8,125.9,265.8z"/>
	<path fill="none" stroke="#B43DF9" stroke-miterlimit="5" d="M146.8,350.3c-1.9-5.1-3.2-7.3-3-2.9c0.2,4.4-1.9,33.6-2.6,37.2
		c-0.6,3.6-1,4.1,1.2,9.2c2.1,5.1,4.5,19.7,4.9,22.1s1.6,5.5,2.1,0S154.1,369.7,146.8,350.3z"/>
	<path fill="none" stroke="#B43DF9" stroke-miterlimit="5" d="M141.6,399.3c-1.3-4.9-1.9-7.5-3.4-2.9c-1.5,4.6-3.4,13.7-3.6,28.9
		c-0.2,15.3,0.9,34,2.3,40.6c1.5,6.6,1.4,10.6,2.1,2.2c0.7-8.3,2.6-31.1,4.5-36.9c1.9-5.8,2.6-6.6,1-17S141.6,399.3,141.6,399.3z"/>
	<path fill="none" stroke="#B43DF9" stroke-miterlimit="5" d="M131.6,423.3c0.6-9.7,0.6-14.1-1.7-9.1c-2.3,5-11.9,32.8-8.1,51.2
		c3.8,18.3,11.7,53.3,18.2,61c9.3,10.7,12.4,15.2,9,6.5c-3.4-8.7-11.8-32.8-12.7-51.3C134.5,469,131.6,423.3,131.6,423.3z"/>
	<path fill="none" stroke="#B43DF9" stroke-miterlimit="5" d="M149.1,448.5c1.7,9.7,2,17.6,0,31.6s-3.1,37.5-1.1,44.4
		s-1.4,6-5.1-16.2s-1.7-32.1,0-51.8c1.7-19.6,2-23.6,4.3-16.8S149.1,448.5,149.1,448.5z"/>
	<path fill="none" stroke="#B43DF9" stroke-miterlimit="5" d="M135.6,528.2c0.6,7,4.1,11.3,6.4,13.6c2.3,2.3,5.7,2.8,7.1,8.2
		c1.4,5.4,1.8,10.5,2,2.8c0-11.4,0.1-12.3-5.5-16.8c-5.6-4.5-7.1-8.4-8.2-10.2S135.1,522.7,135.6,528.2z"/>
	<path fill="none" stroke="#B43DF9" stroke-miterlimit="5" d="M143.9,547.4c-5.6-7.3-8.2-9.5-7.4-5.8c0.9,3.7-0.4,10.6-1,13.2
		c-0.6,2.7-1.4,5.3,2.4,9c3.7,3.6,9,7.7,10.2,9.7c1.3,2,2.4,5.2,2.3-0.4C150.3,567.4,149.8,555.1,143.9,547.4z"/>
	<path fill="none" stroke="#B43DF9" stroke-miterlimit="5" d="M132.2,567.3c-1,3.9-2.9,12.2,1.2,16.1c7.4,6.6,8.1,8.6,9.4,3.5
		s1.1-6.9,1.8-9.9c0.6-3,0.1-3.7-4.5-7.7s-4.2-2.8-5-4.7s-1.5-2.6-2-0.5C132.5,566.2,132.2,567.3,132.2,567.3z"/>
	<path fill="none" stroke="#B43DF9" stroke-miterlimit="5" d="M149.7,580.1c-1.5-1.9-2.1-2.5-2.9,2.1s-1.3,6-2,8.1
		c-0.8,2.1,0.7,5.4,3,4.9c2.2-0.5,4.9-2.1,4.1-7C150.9,583.3,149.7,580.1,149.7,580.1z"/>
</g>
<g>
	<path fill="none" stroke="#B43DF9" stroke-miterlimit="5" d="M172.7,94.3c0.3-1.8,1.1-2.7,3.1-1.7s13.1,5,13.9,5.8
		c0.9,0.9,0.4,1.8-1.7,2.8s-23,8.7-24.9,9.4c-1.8,0.7-3.7,0.6-1.1-2.1C164.6,105.8,172.7,94.3,172.7,94.3z"/>
	<path fill="none" stroke="#B43DF9" stroke-miterlimit="5" d="M157.9,126.3c1.4-5.5,0.3-10.9,9.2-13.9c9-3,23.7-10,25.9-10.8
		s3.4,0,1.4,1.5c-4.7,3.6-7.4,6.5-5.5,12.4c1.8,5.8,9.4,20.9,10.5,23.6c1.1,2.7-0.4,4.6-1.3,5.4c-0.9,0.9-12.1,10.4-16.5,11.4
		c-4.4,1-12.1,2-16.1-1.4C161.6,151,153.9,142.5,157.9,126.3z"/>
	<path fill="none" stroke="#B43DF9" stroke-miterlimit="5" d="M211.1,111.8c4.4,3.5,9.7,10,11.7,22.5c0.7,4.1,0.9,8.7,0.9,9.4
		c0,2.4-0.4,2.7-3.1,0.9c-2.7-1.8-5.5-4.4-9.4-5.4c-3.8-1-10.5-4.7-13.1-8.5c-2.6-3.8-5.7-10-6.7-15.4c-1-5.4-2.1-8,2.7-10.2
		C198.9,102.7,202.4,104.8,211.1,111.8z"/>
	<path fill="none" stroke="#B43DF9" stroke-miterlimit="5" d="M207,148c0.2-4.6-0.1-4.8,1.8-5.4c1.8-0.6,5.4,0,11.7,6.5
		c6.3,6.5,5.5,7.4,6.8,21.3c1.3,13.9,2,34.4,1.6,37.3c-0.4,2.8-1,3.1-4-1.6c-3-4.7-14.1-29-16.1-42.4C206.8,150.5,207,148,207,148z"
		/>
	<path fill="none" stroke="#B43DF9" stroke-miterlimit="5" d="M207,163.1c-1.3-3.8-3.9-4.3-3,0.7c0.9,5,2.3,14.6,5.4,20.5
		s5.7,10,3,0.9C209.7,176.1,207.8,165.4,207,163.1z"/>
	<path fill="none" stroke="#B43DF9" stroke-miterlimit="5" d="M230.7,198.5c0.9-8.7,1.8-9.2,5-4.3c3.1,5,9.2,16.6,9,29.2
		s5.1,31.3,8,36.8c2.8,5.5,2.8,9.4,0,4.4c-2.8-5-17.8-22.9-20.2-43.2S230.7,198.5,230.7,198.5z"/>
	<path fill="none" stroke="#B43DF9" stroke-miterlimit="5" d="M213.5,196.8c0.3-4,2-4.1,3.8,0c1.8,4.1,6.8,12.4,7.7,14.4
		c0.9,2,8.1,17.2,10.8,32.1c2.7,14.9,4.8,26.9,4.7,31.3c-0.1,4.4-0.3,5.8-2.4-1.4c-2.1-7.3-10.4-29.6-14.5-40.8s-3.7-6.1-5-14.4
		c-1.3-8.2-2.8-8.2-4.1-10.7S213.5,196.8,213.5,196.8z"/>
	<path fill="none" stroke="#B43DF9" stroke-miterlimit="5" d="M241.8,259.2c-0.4,2.8,7.8,10.2,7.7,22.3
		c-0.1,12.1-0.9,20.2,2.4,23.9s2.8,3.6,0,2c-2.8-1.6-8.4-7.7-10.1-10.8c-1.7-3.1-2.7-8.5,0-14.2c2.7-5.7,1.8-11.9,0.9-15.5
		S241.8,259.2,241.8,259.2z"/>
	<path fill="none" stroke="#B43DF9" stroke-miterlimit="5" d="M249.3,269.5c-0.9-1.2,0.1-1,1.3,0c1.1,1,9.1,3.3,10.9,4.8
		s7,7.8,7.5,8.7c0.6,0.9,1.6,0.6,0,0.9s-6.7-0.9-10.2,2.4c-1.7,1.7-2.7,1.6-4.7-1.3C252.2,282.1,251.2,271.9,249.3,269.5z"/>
	<path fill="none" stroke="#B43DF9" stroke-miterlimit="5" d="M263.8,286.4c0.3,3.7,0.7,5,2.7,6.1s5.7-0.1,8.2,1.8
		c2.6,2,4.8-1.3,4.6-2.4c-0.3-1.1-7.3-4.6-7.3-4.6l-3.1-1H263.8z"/>
	<path fill="none" stroke="#B43DF9" stroke-miterlimit="5" d="M251.5,292.5c-0.5,4.3,0.6,8.5,1.8,10.9c1.3,2.4,1.8,2.1,4.1,0
		c2.3-2.1-0.3-5.4,2.8-7.7c3.1-2.3,3.8-2.9,2.7-5.1c-1.1-2.2-1.7-2.7-4.8-1.2c-3.1,1.6-2.4,0.6-3.4-0.1
		C253.7,288.7,252,287.5,251.5,292.5z"/>
	<path fill="none" stroke="#B43DF9" stroke-miterlimit="5" d="M257.2,322.2L257.2,322.2c-0.6,0.3-1.3,0-1.6-0.6l-5-10.4
		c-0.3-0.6,0-1.3,0.6-1.6l0,0c0.6-0.3,1.3,0,1.6,0.6l5,10.4C258.1,321.2,257.8,322,257.2,322.2z"/>
	<path fill="none" stroke="#B43DF9" stroke-miterlimit="5" d="M274.9,316.7L274.9,316.7c0.8-0.5,1.1-1.5,0.6-2.3l-10.8-18.5
		c-0.5-0.8-1.5-1.1-2.3-0.6l0,0c-0.8,0.5-1.1,1.5-0.6,2.3l10.8,18.5C273,316.9,274.1,317.2,274.9,316.7z"/>
	<path fill="none" stroke="#B43DF9" stroke-miterlimit="5" d="M273,325.8L273,325.8c-1.2,0.6-2.7,0.2-3.3-1l-10.4-19.9
		c-0.6-1.2-0.2-2.7,1-3.3v0c1.2-0.6,2.7-0.2,3.3,1l10.4,19.9C274.6,323.7,274.2,325.2,273,325.8z"/>
	<path fill="none" stroke="#B43DF9" stroke-miterlimit="5" d="M267.1,326.4L267.1,326.4c1.1-0.6,1.5-1.9,0.9-3l-9.1-16.9
		c-0.6-1.1-1.9-1.5-3-0.9v0c-1.1,0.6-1.5,1.9-0.9,3l9.1,16.9C264.7,326.5,266,326.9,267.1,326.4z"/>
	<path fill="none" stroke="#B43DF9" stroke-miterlimit="5" d="M198.9,154.7c-0.4-6.3-0.3-5.5,1-6s2-0.7,2,9.5
		c0,10.2-1,22.5-0.7,20.5c0.3-2-1.2,5.2-1.3-2.6S198.9,154.7,198.9,154.7z"/>
	<path fill="none" stroke="#B43DF9" stroke-miterlimit="5" d="M192.9,154c3.4-1.4,3.7-5.1,4.1,4.3c0.4,9.4,0.6,32.7,0.6,29.7
		s-0.1,5.5-2.3-3.4c-2.2-9-5.8-16.2-7.9-19.1c-2.1-2.8-4.8-6.1,0-8.7C192.2,154.2,192.9,154,192.9,154z"/>
	<path fill="none" stroke="#B43DF9" stroke-miterlimit="5" d="M177,166.8c-2-6.4,1.7-12.4,5.8-5.7s10.1,22.5,11.4,26
		c1.3,3.6,1.6,5.1,1.4,10.4c0,8.7-0.4,11.2-1.6,6.8c-1.1-4.4-6.6-9.6-8-10.6c-1.4-0.9-6.5-6.6-6.2-11.4
		C180.1,177.5,177,166.8,177,166.8z"/>
	<path fill="none" stroke="#B43DF9" stroke-miterlimit="5" d="M156.2,173.5c0.1,3.4,0.9,3.3,7.5,3.6c6.7,0.3,9.7,3.4,10.9,4.6
		c1.3,1.1,3.7,2.5,1.7-5.5c-3-12.2-1.9-16.1-8.3-18c-6.4-1.9-7.1-2.2-8.7,0.7C157.9,161.7,155.8,161.4,156.2,173.5z"/>
	<path fill="none" stroke="#B43DF9" stroke-miterlimit="5" d="M156.1,182.9c0.1-3.8,3.7-4.9,10.5-2.6c6.8,2.3,9.3,8.6,10.5,10.2
		c1.2,1.6,1.2,3,1.1,7.9c-0.1,4.9,0.6,5.9-1.1,4.2s-5.4-4.5-11.6-4.4s-9.5,1.8-9.4-1.7C156.3,192.9,156.1,182.9,156.1,182.9z"/>
	<path fill="none" stroke="#B43DF9" stroke-miterlimit="5" d="M182.5,198.6c-1-3.3-0.9-4.7,1.1-3.4c1.9,1.3,5.2,4.5,6.4,6.9
		s2.6,8.4-0.7,13.9c-3.3,5.4-8.3,9.3-9.9,10.2s-4.5,1-2.1-1.8c2.4-2.8,5.9-12.5,6-16.7C183.3,203.4,182.5,198.6,182.5,198.6z"/>
	<path fill="none" stroke="#B43DF9" stroke-miterlimit="5" d="M160.3,201.9c-3.3,0.3-3-0.2-3,5.8c0,6-0.6,17-0.5,19.1
		c0,2.1,0.7,2.7,3.5,1.1s5.9-2.5,8.2-2.6c2.3-0.1,5.7-0.4,7.7-5.9c2.1-5.4,5.7-11.2,0.9-13.9C172.4,202.9,167.6,201.1,160.3,201.9z"
		/>
	<path fill="none" stroke="#B43DF9" stroke-miterlimit="5" d="M188.5,221.7c3.6-4.9,5.5-8.6,5.9-2.6c0.3,6.1,5.1,27.5-9,41.8
		s-18,17.6-16.1,12.9c1.9-4.7,7.4-17,8.2-25.5c0.9-8.5,0.9-17,0.9-17s-1.3-1,1.7-2.6C183,227.1,188.5,221.7,188.5,221.7z"/>
	<path fill="none" stroke="#B43DF9" stroke-miterlimit="5" d="M158.7,233.1c2.7-2.1,11.3-6.1,14.5-6.4c3.2-0.3,3,1,3.1,5.9
		c0,4.9-2.3,24.8-5.7,32.4s-8.1,14.1-10.5,15.9s-2.7,3.9-2.8-2.7s0.1-37.6,0-40.8S157.6,233.9,158.7,233.1z"/>
	<path fill="none" stroke="#B43DF9" stroke-miterlimit="5" d="M194.2,262.3c-0.3-5.9,0.2-4.4,1.1-8.3c1-3.9,1.3-6.8,1.7-1.3
		s5.2,30.8,2.5,55.7c-2.8,25-3.5,28.2-4.2,29.9c-0.7,1.7-2.1,2.5-2.1-0.9C193.3,334.2,194.2,262.3,194.2,262.3z"/>
	<path fill="none" stroke="#B43DF9" stroke-miterlimit="5" d="M188.7,265.5c1.6-5.9,3.4-10.7,3.2-2.9c-0.2,7.8,0.5,51.3-2.3,84.4
		c-2.9,33.1-5.1,53.3-5.7,60.5c-0.5,7.1,0,10.1-4.6,1.4c-4.6-8.7-12.5-18.9-10.3-72.4c3.4-26.4,19.3-69.5,19.3-69.5"/>
	<path fill="none" stroke="#B43DF9" stroke-miterlimit="5" d="M183.4,265.8c2.6-5.6,5.4-7.9,3.1,0s-24.3,79.5-25.4,81.1
		s-2,3.8-2.2-2.5c-0.2-6.3-1.3-48.7-1.5-51.1C157.1,291,183.4,265.8,183.4,265.8z"/>
	<path fill="none" stroke="#B43DF9" stroke-miterlimit="5" d="M162.5,350.3c1.9-5.1,3.2-7.3,3-2.9c-0.2,4.4,1.9,33.6,2.6,37.2
		c0.6,3.6,1,4.1-1.2,9.2c-2.1,5.1-4.5,19.7-4.9,22.1c-0.4,2.3-1.6,5.5-2.1,0C159.3,410.4,155.1,369.7,162.5,350.3z"/>
	<path fill="none" stroke="#B43DF9" stroke-miterlimit="5" d="M167.7,399.3c1.3-4.9,1.9-7.5,3.4-2.9c1.5,4.6,3.4,13.7,3.6,28.9
		c0.2,15.3-0.9,34-2.3,40.6s-1.4,10.6-2.1,2.2c-0.7-8.3-2.6-31.1-4.5-36.9c-1.9-5.8-2.6-6.6-1-17
		C166.4,403.8,167.7,399.3,167.7,399.3z"/>
	<path fill="none" stroke="#B43DF9" stroke-miterlimit="5" d="M177.7,423.3c-0.6-9.7-0.6-14.1,1.7-9.1s11.9,32.8,8.1,51.2
		c-3.8,18.3-11.7,53.3-18.2,61c-9.3,10.7-12.4,15.2-9,6.5c3.4-8.7,11.8-32.8,12.7-51.3C174.7,469,177.7,423.3,177.7,423.3z"/>
	<path fill="none" stroke="#B43DF9" stroke-miterlimit="5" d="M160.2,448.5c-1.7,9.7-2,17.6,0,31.6c2,13.9,3.1,37.5,1.1,44.4
		s1.4,6,5.1-16.2s1.7-32.1,0-51.8c-1.7-19.6-2-23.6-4.3-16.8C159.9,446.5,160.2,448.5,160.2,448.5z"/>
	<path fill="none" stroke="#B43DF9" stroke-miterlimit="5" d="M173.7,528.2c-0.6,7-4.1,11.3-6.4,13.6c-2.3,2.3-5.7,2.8-7.1,8.2
		c-1.4,5.4-1.8,10.5-2,2.8c0-11.4-0.1-12.3,5.5-16.8c5.6-4.5,7.1-8.4,8.2-10.2S174.1,522.7,173.7,528.2z"/>
	<path fill="none" stroke="#B43DF9" stroke-miterlimit="5" d="M165.3,547.4c5.6-7.3,8.2-9.5,7.4-5.8c-0.9,3.7,0.4,10.6,1,13.2
		c0.6,2.7,1.4,5.3-2.4,9c-3.7,3.6-9,7.7-10.2,9.7c-1.3,2-2.4,5.2-2.3-0.4C158.9,567.4,159.5,555.1,165.3,547.4z"/>
	<path fill="none" stroke="#B43DF9" stroke-miterlimit="5" d="M177.1,567.3c1,3.9,2.9,12.2-1.2,16.1c-7.4,6.6-8.1,8.6-9.4,3.5
		c-1.4-5.1-1.1-6.9-1.8-9.9c-0.6-3-0.1-3.7,4.5-7.7s4.2-2.8,5-4.7s1.5-2.6,2-0.5C176.7,566.2,177.1,567.3,177.1,567.3z"/>
	<path fill="none" stroke="#B43DF9" stroke-miterlimit="5" d="M159.6,580.1c1.5-1.9,2.1-2.5,2.9,2.1c0.7,4.6,1.3,6,2,8.1
		s-0.7,5.4-3,4.9c-2.2-0.5-4.9-2.1-4.1-7C158.3,583.3,159.6,580.1,159.6,580.1z"/>
</g>
<path fill="none" stroke="#B43DF9" stroke-miterlimit="5" d="M150.5,106.5c0.7,5,0,5.5-2.1,1.4s-6.2-9.6-7.4-11.4
	c-1.2-1.7-1.9-2.8-1.9-9.3s-1-9.6,3.1-3.6s6.2,5.4,6.9,11.9C149.8,102,150.5,106.5,150.5,106.5z"/>
<path fill="none" stroke="#B43DF9" stroke-miterlimit="5" d="M157.2,106.5c-0.7,5,0,5.5,2.1,1.4s6.2-9.6,7.4-11.4
	c1.2-1.7,1.9-2.8,1.9-9.3s1-9.6-3.1-3.6s-6.2,5.4-6.9,11.9C157.8,102,157.2,106.5,157.2,106.5z"/>
<path fill="none" stroke="#B43DF9" stroke-miterlimit="5" d="M153,84.7c-5-0.3-4.6,0.4-7.7-2.3s-1.2-1-5.2-4.8
	c-4.1-3.9-4.2-5.2-4.4-12.4s-0.8-4.2-3.7-6.8c-2.9-2.5-3.7-10.4-2.3-12.2c1.4-1.7,3.7,4.1,3.9-5.2s-0.4-11.7,3.7-14.9
	c6.6-5,6.5-6.2,13.2-6.2s8.2-0.2,11.3,0c3.1,0.2,6.2,3.9,9.5,6.2s2.9,11,3.3,14.9s1,4.8,3.5,4.4c2.5-0.4,2.1,10.2-1.2,12.6
	c-3.3,2.3-4.1,2.7-3.9,7.9c0.2,5.2,0.2,7.1-3.3,10.4c-3.5,3.3-5.8,6-7.3,7.1C160.7,84.7,158,85,153,84.7z"/>
</svg>
